<svg width="19" height="19" viewBox="0 0 19 19" fill="none" xmlns="http://www.w3.org/2000/svg">
<g clip-path="url(#clip0_6_260)">
<path d="M4.19676 14.3282C3.49928 13.6325 2.94616 12.8058 2.56917 11.8957C2.19218 10.9856 1.99875 10.01 2.00001 9.0249C2.00001 4.88265 5.35776 1.5249 9.50001 1.5249C13.6423 1.5249 17 4.88265 17 9.0249C17 13.1672 13.6423 16.5249 9.50001 16.5249H2.00001L4.19676 14.3282ZM6.50001 9.7749C6.50001 10.5706 6.81608 11.3336 7.37869 11.8962C7.94129 12.4588 8.70436 12.7749 9.50001 12.7749C10.2957 12.7749 11.0587 12.4588 11.6213 11.8962C12.1839 11.3336 12.5 10.5706 12.5 9.7749H6.50001Z" fill="#607B96"/>
</g>
<defs>
<clipPath id="clip0_6_260">
<rect width="18" height="18" fill="white" transform="translate(0.5 0.0249023)"/>
</clipPath>
</defs>
</svg>
