<svg width="24" height="25" viewBox="0 0 24 25" fill="none" xmlns="http://www.w3.org/2000/svg">
<g clip-path="url(#clip0_6_803)">
<path d="M22.3832 6.15599C21.6197 6.49368 20.8101 6.71546 19.9812 6.81399C20.8549 6.29142 21.5089 5.469 21.8212 4.49999C21.0012 4.98799 20.1022 5.32999 19.1652 5.51499C18.5358 4.84157 17.7015 4.39495 16.7921 4.24457C15.8827 4.09419 14.9491 4.24848 14.1364 4.68344C13.3238 5.1184 12.6776 5.80967 12.2983 6.64978C11.919 7.48989 11.8279 8.43177 12.0392 9.32899C10.3763 9.24564 8.74952 8.81351 7.26447 8.06065C5.77943 7.30779 4.46931 6.25104 3.41918 4.95899C3.04747 5.59744 2.85214 6.32321 2.85318 7.06199C2.85318 8.51199 3.59118 9.79299 4.71318 10.543C4.04919 10.5221 3.39982 10.3428 2.81918 10.02V10.072C2.81938 11.0377 3.15355 11.9736 3.76503 12.721C4.37651 13.4685 5.22766 13.9815 6.17418 14.173C5.5578 14.34 4.91149 14.3646 4.28418 14.245C4.55105 15.0762 5.07119 15.8032 5.77178 16.3241C6.47236 16.845 7.31831 17.1338 8.19118 17.15C7.32366 17.8313 6.33036 18.335 5.26806 18.6322C4.20577 18.9293 3.09531 19.0142 2.00018 18.882C3.91188 20.1114 6.13728 20.7641 8.41018 20.762C16.1032 20.762 20.3102 14.389 20.3102 8.86199C20.3102 8.68199 20.3052 8.49999 20.2972 8.32199C21.116 7.73016 21.8228 6.99701 22.3842 6.15699L22.3832 6.15599Z" fill="#607B96"/>
</g>
<defs>
<clipPath id="clip0_6_803">
<rect width="24" height="24" fill="white" transform="translate(0 0.5)"/>
</clipPath>
</defs>
</svg>
