<svg width="24" height="25" viewBox="0 0 24 25" fill="none" xmlns="http://www.w3.org/2000/svg">
<g clip-path="url(#clip0_6_918)">
<path d="M22.3832 6.15593C21.6197 6.49362 20.8101 6.7154 19.9812 6.81393C20.8549 6.29136 21.5089 5.46894 21.8212 4.49993C21.0012 4.98793 20.1022 5.32993 19.1652 5.51493C18.5358 4.84151 17.7015 4.39489 16.7921 4.24451C15.8827 4.09413 14.9491 4.24842 14.1364 4.68338C13.3238 5.11834 12.6776 5.80961 12.2983 6.64972C11.919 7.48983 11.8279 8.43171 12.0392 9.32893C10.3763 9.24558 8.74952 8.81345 7.26447 8.06059C5.77943 7.30773 4.46931 6.25097 3.41918 4.95893C3.04747 5.59738 2.85214 6.32315 2.85318 7.06193C2.85318 8.51193 3.59118 9.79293 4.71318 10.5429C4.04919 10.522 3.39982 10.3427 2.81918 10.0199V10.0719C2.81938 11.0376 3.15355 11.9735 3.76503 12.721C4.37651 13.4684 5.22766 13.9814 6.17418 14.1729C5.5578 14.34 4.91149 14.3646 4.28418 14.2449C4.55105 15.0762 5.07119 15.8031 5.77178 16.324C6.47236 16.8449 7.31831 17.1337 8.19118 17.1499C7.32366 17.8313 6.33036 18.3349 5.26806 18.6321C4.20577 18.9293 3.09531 19.0142 2.00018 18.8819C3.91188 20.1114 6.13728 20.764 8.41018 20.7619C16.1032 20.7619 20.3102 14.3889 20.3102 8.86193C20.3102 8.68193 20.3052 8.49993 20.2972 8.32193C21.116 7.73009 21.8228 6.99695 22.3842 6.15693L22.3832 6.15593Z" fill="#607B96"/>
</g>
<defs>
<clipPath id="clip0_6_918">
<rect width="24" height="24" fill="white" transform="translate(0 0.5)"/>
</clipPath>
</defs>
</svg>
