<svg width="24" height="25" viewBox="0 0 24 25" fill="none" xmlns="http://www.w3.org/2000/svg">
<g clip-path="url(#clip0_6_836)">
<path d="M22.3832 6.15605C21.6197 6.49374 20.8101 6.71552 19.9812 6.81405C20.8549 6.29148 21.5089 5.46906 21.8212 4.50005C21.0012 4.98805 20.1022 5.33005 19.1652 5.51505C18.5358 4.84163 17.7015 4.39501 16.7921 4.24463C15.8827 4.09425 14.9491 4.24854 14.1364 4.6835C13.3238 5.11846 12.6776 5.80973 12.2983 6.64984C11.919 7.48995 11.8279 8.43183 12.0392 9.32905C10.3763 9.2457 8.74952 8.81357 7.26447 8.06071C5.77943 7.30785 4.46931 6.2511 3.41918 4.95905C3.04747 5.5975 2.85214 6.32328 2.85318 7.06205C2.85318 8.51205 3.59118 9.79305 4.71318 10.543C4.04919 10.5221 3.39982 10.3428 2.81918 10.02V10.072C2.81938 11.0377 3.15355 11.9737 3.76503 12.7211C4.37651 13.4686 5.22766 13.9815 6.17418 14.173C5.5578 14.3401 4.91149 14.3647 4.28418 14.245C4.55105 15.0763 5.07119 15.8032 5.77178 16.3242C6.47236 16.8451 7.31831 17.1338 8.19118 17.15C7.32366 17.8314 6.33036 18.335 5.26806 18.6322C4.20577 18.9294 3.09531 19.0143 2.00018 18.882C3.91188 20.1115 6.13728 20.7642 8.41018 20.762C16.1032 20.762 20.3102 14.389 20.3102 8.86205C20.3102 8.68205 20.3052 8.50005 20.2972 8.32205C21.116 7.73022 21.8228 6.99707 22.3842 6.15705L22.3832 6.15605Z" fill="#607B96"/>
</g>
<defs>
<clipPath id="clip0_6_836">
<rect width="24" height="24" fill="white" transform="translate(0 0.5)"/>
</clipPath>
</defs>
</svg>
