<svg width="29" height="29" viewBox="0 0 29 29" fill="none" xmlns="http://www.w3.org/2000/svg">
<rect x="0.652832" y="0.695801" width="28" height="28" rx="2" fill="#86E1F9"/>
<g clip-path="url(#clip0_6_852)">
<path d="M14.6528 15.9733C14.314 15.9733 13.989 15.8387 13.7494 15.5991C13.5098 15.3595 13.3752 15.0345 13.3752 14.6957C13.3752 14.3568 13.5098 14.0318 13.7494 13.7922C13.989 13.5526 14.314 13.418 14.6528 13.418C14.9917 13.418 15.3166 13.5526 15.5562 13.7922C15.7958 14.0318 15.9304 14.3568 15.9304 14.6957C15.9304 15.0345 15.7958 15.3595 15.5562 15.5991C15.3166 15.8387 14.9917 15.9733 14.6528 15.9733ZM14.2031 18.5234C14.3522 18.7022 14.5021 18.876 14.6528 19.0421C14.8036 18.876 14.9535 18.7031 15.1026 18.5234C14.8028 18.5297 14.5029 18.5297 14.2031 18.5234V18.5234ZM12.5039 18.4169C11.8498 18.3488 11.2 18.2442 10.5577 18.1035C10.4938 18.4016 10.4452 18.6912 10.4129 18.9688C10.251 20.3171 10.4768 21.1365 10.82 21.3341C11.1633 21.5326 11.9852 21.3179 13.0729 20.5045C13.2969 20.3367 13.5226 20.1502 13.7491 19.9466C13.3058 19.4604 12.8901 18.9497 12.5039 18.4169V18.4169ZM18.748 18.1035C18.1373 18.2397 17.4849 18.3454 16.8018 18.4169C16.4156 18.9497 15.9999 19.4604 15.5565 19.9466C15.7831 20.151 16.0088 20.3367 16.2328 20.5045C17.3205 21.3179 18.1424 21.5326 18.4857 21.3341C18.8289 21.1365 19.0538 20.3171 18.8936 18.9688C18.8585 18.6783 18.8102 18.3896 18.7489 18.1035H18.748ZM19.983 17.7738C20.4745 20.0216 20.2164 21.8111 19.1245 22.4414C18.0325 23.0717 16.3538 22.4005 14.6528 20.8512C12.9519 22.4005 11.2731 23.0708 10.1812 22.4405C9.08927 21.8102 8.83119 20.0216 9.32179 17.773C7.12941 17.0754 5.70956 15.9562 5.70956 14.6957C5.70956 13.4351 7.12941 12.3167 9.32179 11.6175C8.83119 9.36972 9.08927 7.58022 10.1812 6.94993C11.2731 6.31964 12.9519 6.99081 14.6528 8.54013C16.3538 6.99081 18.0325 6.32049 19.1245 6.95078C20.2164 7.58107 20.4745 9.36972 19.9839 11.6183C22.1763 12.3159 23.5961 13.4351 23.5961 14.6957C23.5961 15.9562 22.1763 17.0746 19.9839 17.7738H19.983ZM13.7483 9.44468C13.5317 9.24861 13.3063 9.06246 13.0729 8.88679C11.9852 8.07337 11.1633 7.85874 10.82 8.05719C10.4768 8.25479 10.2519 9.07417 10.412 10.4225C10.4461 10.701 10.4938 10.9897 10.5568 11.2878C11.1995 11.1471 11.8495 11.0424 12.5039 10.9744C12.9085 10.4182 13.3258 9.90632 13.7491 9.44468H13.7483ZM16.8018 10.9744C17.4849 11.0459 18.1373 11.1524 18.748 11.2878C18.8119 10.9897 18.8604 10.7001 18.8928 10.4225C19.0546 9.07417 18.8289 8.25479 18.4857 8.05719C18.1424 7.85874 17.3205 8.07337 16.2328 8.88679C15.9991 9.06244 15.7734 9.24859 15.5565 9.44468C15.9798 9.90632 16.3972 10.4182 16.8018 10.9744V10.9744ZM15.1026 10.8679C14.9535 10.6891 14.8036 10.5153 14.6528 10.3492C14.5021 10.5153 14.3522 10.6882 14.2031 10.8679C14.5029 10.8616 14.8028 10.8616 15.1026 10.8679V10.8679ZM11.5627 16.9988C11.4073 16.7425 11.2574 16.4829 11.113 16.2203C11.0321 16.4392 10.9571 16.6547 10.889 16.8684C11.1079 16.9161 11.3328 16.9596 11.5619 16.9988H11.5627ZM13.2083 17.1981C14.17 17.2695 15.1357 17.2695 16.0974 17.1981C16.6401 16.4008 17.123 15.5644 17.5419 14.6957C17.123 13.8269 16.6401 12.9905 16.0974 12.1932C15.1357 12.1218 14.17 12.1218 13.2083 12.1932C12.6656 12.9905 12.1827 13.8269 11.7637 14.6957C12.1827 15.5644 12.6656 16.4008 13.2083 17.1981V17.1981ZM18.1927 13.171C18.2736 12.9521 18.3485 12.7367 18.4167 12.5229C18.1934 12.4744 17.969 12.431 17.7438 12.3925C17.8989 12.6488 18.0486 12.9084 18.1927 13.171ZM9.65312 12.8533C9.36353 12.947 9.08927 13.0492 8.83204 13.16C7.58424 13.6949 6.98717 14.2996 6.98717 14.6957C6.98717 15.0917 7.58339 15.6964 8.83204 16.2313C9.08927 16.3421 9.36353 16.4443 9.65312 16.538C9.84221 15.9417 10.0764 15.3234 10.3558 14.6957C10.0874 14.0952 9.85276 13.4801 9.65312 12.8533V12.8533ZM10.8881 12.5229C10.9571 12.7358 11.0321 12.9521 11.113 13.1702C11.2574 12.9078 11.4073 12.6486 11.5627 12.3925C11.3328 12.4317 11.1079 12.4752 10.889 12.5229H10.8881ZM19.6525 16.538C19.9421 16.4443 20.2164 16.3421 20.4736 16.2313C21.7214 15.6964 22.3185 15.0917 22.3185 14.6957C22.3185 14.2996 21.7223 13.6949 20.4736 13.16C20.2047 13.0454 19.9307 12.9431 19.6525 12.8533C19.4635 13.4496 19.2292 14.0679 18.9499 14.6957C19.2292 15.3234 19.4635 15.9409 19.6525 16.538V16.538ZM18.4175 16.8684C18.3485 16.6555 18.2736 16.4392 18.1927 16.2211C18.0483 16.4835 17.8983 16.7428 17.7429 16.9988C17.9729 16.9596 18.1978 16.9161 18.4167 16.8684H18.4175Z" fill="#011221"/>
</g>
<defs>
<clipPath id="clip0_6_852">
<rect width="20.4418" height="20.4418" fill="white" transform="translate(4.43195 4.47485)"/>
</clipPath>
</defs>
</svg>
