<svg width="25" height="25" viewBox="0 0 25 25" fill="none" xmlns="http://www.w3.org/2000/svg">
<g opacity="0.4" clip-path="url(#clip0_6_957)">
<path d="M12.8115 2.70068C7.31152 2.70068 2.81152 7.20068 2.81152 12.7007C2.81152 18.2007 7.31152 22.7007 12.8115 22.7007C18.3115 22.7007 22.8115 18.2007 22.8115 12.7007C22.8115 7.20068 18.3115 2.70068 12.8115 2.70068ZM7.24052 18.2717C5.74052 16.7717 4.95452 14.7717 4.95452 12.8437L12.7405 20.5577C10.7405 20.4867 8.74052 19.7717 7.24052 18.2717V18.2717ZM14.5255 20.3437L5.16852 10.9867C5.95452 7.48668 9.09752 4.84368 12.8115 4.84368C15.4545 4.84368 17.7405 6.12968 19.1685 8.05768L18.0975 8.98668C16.8815 7.34368 14.9545 6.27068 12.8115 6.27068C10.0255 6.27068 7.66852 8.05668 6.74052 10.5567L14.9545 18.7707C17.0255 18.0567 18.5975 16.2707 19.0975 14.1287H15.6685V12.7007H20.6685C20.6685 16.4147 18.0255 19.5577 14.5255 20.3437V20.3437Z" fill="#607B96"/>
</g>
<defs>
<clipPath id="clip0_6_957">
<rect width="24" height="24" fill="white" transform="translate(0.811523 0.700684)"/>
</clipPath>
</defs>
</svg>
