<svg width="25" height="24" viewBox="0 0 25 24" fill="none" xmlns="http://www.w3.org/2000/svg">
<g clip-path="url(#clip0_6_896)">
<path d="M12.8115 13.5001C12.4137 13.5001 12.0322 13.342 11.7509 13.0607C11.4696 12.7794 11.3115 12.3979 11.3115 12.0001C11.3115 11.6022 11.4696 11.2207 11.7509 10.9394C12.0322 10.6581 12.4137 10.5001 12.8115 10.5001C13.2093 10.5001 13.5909 10.6581 13.8722 10.9394C14.1535 11.2207 14.3115 11.6022 14.3115 12.0001C14.3115 12.3979 14.1535 12.7794 13.8722 13.0607C13.5909 13.342 13.2093 13.5001 12.8115 13.5001ZM12.2835 16.4941C12.4585 16.7041 12.6345 16.9081 12.8115 17.1031C12.9885 16.9081 13.1645 16.7051 13.3395 16.4941C12.9876 16.5015 12.6355 16.5015 12.2835 16.4941V16.4941ZM10.2885 16.3691C9.52058 16.2891 8.75772 16.1663 8.00352 16.0011C7.92852 16.3511 7.87152 16.6911 7.83352 17.0171C7.64352 18.6001 7.90852 19.5621 8.31152 19.7941C8.71452 20.0271 9.67952 19.7751 10.9565 18.8201C11.2195 18.6231 11.4845 18.4041 11.7505 18.1651C11.23 17.5942 10.7419 16.9946 10.2885 16.3691V16.3691ZM17.6195 16.0011C16.9025 16.1611 16.1365 16.2851 15.3345 16.3691C14.8811 16.9946 14.393 17.5942 13.8725 18.1651C14.1385 18.4051 14.4035 18.6231 14.6665 18.8201C15.9435 19.7751 16.9085 20.0271 17.3115 19.7941C17.7145 19.5621 17.9785 18.6001 17.7905 17.0171C17.7492 16.676 17.6925 16.337 17.6205 16.0011H17.6195ZM19.0695 15.6141C19.6465 18.2531 19.3435 20.3541 18.0615 21.0941C16.7795 21.8341 14.8085 21.0461 12.8115 19.2271C10.8145 21.0461 8.84352 21.8331 7.56152 21.0931C6.27952 20.3531 5.97652 18.2531 6.55252 15.6131C3.97852 14.7941 2.31152 13.4801 2.31152 12.0001C2.31152 10.5201 3.97852 9.20705 6.55252 8.38605C5.97652 5.74705 6.27952 3.64605 7.56152 2.90605C8.84352 2.16605 10.8145 2.95405 12.8115 4.77305C14.8085 2.95405 16.7795 2.16705 18.0615 2.90705C19.3435 3.64705 19.6465 5.74705 19.0705 8.38705C21.6445 9.20605 23.3115 10.5201 23.3115 12.0001C23.3115 13.4801 21.6445 14.7931 19.0705 15.6141H19.0695ZM11.7495 5.83505C11.4952 5.60486 11.2306 5.3863 10.9565 5.18005C9.67952 4.22505 8.71452 3.97305 8.31152 4.20605C7.90852 4.43805 7.64452 5.40005 7.83252 6.98305C7.87252 7.31005 7.92852 7.64905 8.00252 7.99905C8.75705 7.83379 9.52025 7.71093 10.2885 7.63105C10.7635 6.97805 11.2535 6.37705 11.7505 5.83505H11.7495ZM15.3345 7.63105C16.1365 7.71505 16.9025 7.84005 17.6195 7.99905C17.6945 7.64905 17.7515 7.30905 17.7895 6.98305C17.9795 5.40005 17.7145 4.43805 17.3115 4.20605C16.9085 3.97305 15.9435 4.22505 14.6665 5.18005C14.3921 5.38628 14.1272 5.60484 13.8725 5.83505C14.3695 6.37705 14.8595 6.97805 15.3345 7.63105V7.63105ZM13.3395 7.50605C13.1645 7.29605 12.9885 7.09205 12.8115 6.89705C12.6345 7.09205 12.4585 7.29505 12.2835 7.50605C12.6355 7.49858 12.9876 7.49858 13.3395 7.50605V7.50605ZM9.18352 14.7041C9.00108 14.4032 8.82504 14.0984 8.65552 13.7901C8.56052 14.0471 8.47252 14.3001 8.39252 14.5511C8.64952 14.6071 8.91352 14.6581 9.18252 14.7041H9.18352ZM11.1155 14.9381C12.2446 15.0219 13.3784 15.0219 14.5075 14.9381C15.1447 14.002 15.7116 13.02 16.2035 12.0001C15.7116 10.9801 15.1447 9.9981 14.5075 9.06205C13.3784 8.97819 12.2446 8.97819 11.1155 9.06205C10.4783 9.9981 9.91143 10.9801 9.41952 12.0001C9.91143 13.02 10.4783 14.002 11.1155 14.9381V14.9381ZM16.9675 10.2101C17.0625 9.95305 17.1505 9.70005 17.2305 9.44905C16.9684 9.39216 16.705 9.34115 16.4405 9.29605C16.6226 9.59696 16.7983 9.9017 16.9675 10.2101ZM6.94152 9.83705C6.60152 9.94705 6.27952 10.0671 5.97752 10.1971C4.51252 10.8251 3.81152 11.5351 3.81152 12.0001C3.81152 12.4651 4.51152 13.1751 5.97752 13.8031C6.27952 13.9331 6.60152 14.0531 6.94152 14.1631C7.16352 13.4631 7.43852 12.7371 7.76652 12.0001C7.45135 11.295 7.17592 10.5729 6.94152 9.83705V9.83705ZM8.39152 9.44905C8.47252 9.69905 8.56052 9.95305 8.65552 10.2091C8.82505 9.90102 9.00109 9.59662 9.18352 9.29605C8.91352 9.34205 8.64952 9.39305 8.39252 9.44905H8.39152ZM18.6815 14.1631C19.0215 14.0531 19.3435 13.9331 19.6455 13.8031C21.1105 13.1751 21.8115 12.4651 21.8115 12.0001C21.8115 11.5351 21.1115 10.8251 19.6455 10.1971C19.3298 10.0626 19.0081 9.94243 18.6815 9.83705C18.4595 10.5371 18.1845 11.2631 17.8565 12.0001C18.1845 12.7371 18.4595 13.4621 18.6815 14.1631V14.1631ZM17.2315 14.5511C17.1505 14.3011 17.0625 14.0471 16.9675 13.7911C16.798 14.0991 16.622 14.4035 16.4395 14.7041C16.7095 14.6581 16.9735 14.6071 17.2305 14.5511H17.2315Z" fill="#607B96"/>
</g>
<defs>
<clipPath id="clip0_6_896">
<rect width="24" height="24" fill="white" transform="translate(0.811523)"/>
</clipPath>
</defs>
</svg>
